<?xml version="1.0" encoding="utf-8"?>
<!-- Generator: Adobe Illustrator 21.0.0, SVG Export Plug-In . SVG Version: 6.00 Build 0)  -->
<svg version="1.1" id="图层_1" xmlns="http://www.w3.org/2000/svg" xmlns:xlink="http://www.w3.org/1999/xlink" x="0px" y="0px"
	 width="88px" height="88px" viewBox="0 0 88 88" style="enable-background:new 0 0 88 88;" xml:space="preserve">
<style type="text/css">
	.st0{fill:#F5F6F7;}
	.st1{fill:#EDEFEF;}
	.st2{fill:#FFFFFF;}
	.st3{fill:#E0E2E8;}
</style>
<g id="编组" transform="translate(1.000000, 0.000000)">
	<path id="路径" class="st0" d="M6.985,46.812c-0.001,13.913,7.421,26.769,19.47,33.725s26.893,6.956,38.942,0
		s19.47-19.812,19.47-33.725c0.001-13.913-7.421-26.769-19.47-33.725s-26.893-6.956-38.942,0S6.984,32.899,6.985,46.812
		L6.985,46.812z"/>
	<path id="路径_1_" class="st1" d="M10.495,46.005c0,3.707,1.978,7.133,5.188,8.986c3.21,1.854,7.166,1.854,10.376,0
		c3.21-1.854,5.188-5.279,5.188-8.986c0-5.731-4.646-10.376-10.376-10.376S10.495,40.274,10.495,46.005z"/>
	<path id="路径_2_" class="st1" d="M54.673,46.005c0,5.731,4.646,10.376,10.376,10.376s10.376-4.646,10.376-10.376
		S70.78,35.629,65.05,35.629S54.673,40.274,54.673,46.005L54.673,46.005z"/>
	<path id="路径_3_" class="st2" d="M59.757,50.421c-1.203,10.752-9.713,13.153-16.703,13.153c-7.955,0-14.644-3.317-16.52-13.153
		H59.757"/>
	<path id="形状" class="st3" d="M43,0C18.699,0-1,19.699-1,44s19.699,44,44,44s44-19.699,44-44C86.967,19.713,67.287,0.033,43,0z
		 M43,84.04C20.887,84.04,2.96,66.113,2.96,44S20.887,3.96,43,3.96S83.04,21.887,83.04,44C83.007,66.1,65.1,84.007,43,84.04
		L43,84.04z"/>
	<path id="形状_1_" class="st3" d="M59.757,48.441H26.535c-0.59,0-1.15,0.263-1.526,0.718c-0.376,0.455-0.53,1.054-0.419,1.634
		c1.842,9.658,8.228,14.762,18.465,14.762c10.96,0,17.594-5.297,18.673-14.911c0.064-0.563-0.116-1.126-0.495-1.547
		s-0.919-0.66-1.485-0.656H59.757z M43.059,61.594c-7.426,0-12.035-3.015-13.99-9.193h28.347
		C55.886,58.505,51.074,61.594,43.059,61.594z M68.842,27.96c-0.45-0.991-1.615-1.433-2.609-0.99l-10.797,4.743
		c-0.729,0.32-1.195,1.046-1.183,1.842c0.012,0.796,0.499,1.508,1.238,1.806l10.787,4.376c1.001,0.362,2.109-0.133,2.508-1.119
		c0.399-0.987-0.053-2.113-1.023-2.549l-6.436-2.624l6.485-2.876c0.483-0.209,0.863-0.601,1.056-1.091
		C69.061,28.989,69.052,28.443,68.842,27.96L68.842,27.96z M30.386,33.554c0.011-0.797-0.458-1.523-1.188-1.842l-10.777-4.767
		c-1.001-0.442-2.17,0.012-2.611,1.012c-0.442,1.001,0.012,2.17,1.012,2.611l6.51,2.876l-6.436,2.624
		c-0.682,0.247-1.175,0.846-1.284,1.563c-0.11,0.717,0.182,1.437,0.759,1.875c0.578,0.439,1.349,0.527,2.01,0.229l10.787-4.376
		C29.899,35.057,30.378,34.346,30.386,33.554L30.386,33.554z"/>
</g>
</svg>
